<svg width="45" height="45" viewBox="0 0 45 45" fill="none" xmlns="http://www.w3.org/2000/svg">
<circle cx="22.1186" cy="22.2412" r="22.0263" fill="#2C5298" fill-opacity="0.2"/>
<circle cx="22.1186" cy="22.241" r="19.1419" transform="rotate(-180 22.1186 22.241)" fill="url(#paint0_linear)" fill-opacity="0.9"/>
<g clip-path="url(#clip0)">
<path d="M28.4712 22.7118C28.0277 22.1384 27.3585 21.7445 26.4636 21.5304C27.6032 20.9491 28.1041 19.9624 27.9666 18.5703C27.9206 18.0655 27.7811 17.628 27.5477 17.2572C27.3142 16.8862 26.999 16.5881 26.601 16.3625C26.2034 16.1366 25.7709 15.9647 25.3046 15.8461C24.8382 15.7276 24.3027 15.6415 23.6984 15.588V12.697H21.9319V15.5077C21.626 15.5077 21.1595 15.5154 20.5324 15.5307V12.697H18.7656V15.588C18.5131 15.5957 18.1422 15.5996 17.6528 15.5996L15.2207 15.588V17.4695H16.494C17.0753 17.4695 17.4157 17.7296 17.5151 18.2496V21.5422C17.5916 21.5422 17.6528 21.5462 17.6987 21.5538H17.5151V26.1655C17.4539 26.5554 17.2322 26.7506 16.8497 26.7506H15.5765L15.2208 28.8501H17.5153C17.6606 28.8501 17.8708 28.852 18.1462 28.8555C18.4215 28.8593 18.6279 28.8612 18.7657 28.8612V31.7866H20.5327V28.8956C20.8539 28.9035 21.3204 28.9072 21.9322 28.9072V31.7866H23.6988V28.8612C24.3261 28.8307 24.8825 28.7736 25.3679 28.6892C25.8536 28.6048 26.3184 28.4731 26.7619 28.2932C27.2053 28.1136 27.5762 27.8898 27.8744 27.6221C28.1728 27.3546 28.4192 27.0141 28.6146 26.601C28.8093 26.188 28.9338 25.71 28.9871 25.1668C29.087 24.104 28.9148 23.2856 28.4712 22.7118ZM20.5667 17.5954C20.6203 17.5954 20.7713 17.5935 21.0199 17.5896C21.2686 17.5857 21.475 17.5819 21.6394 17.578C21.8039 17.5742 22.0257 17.5838 22.305 17.6068C22.5841 17.6297 22.8193 17.6604 23.0104 17.6985C23.2016 17.7367 23.4121 17.7998 23.6413 17.8878C23.8709 17.9757 24.0544 18.0828 24.1919 18.209C24.3297 18.3351 24.4463 18.4958 24.5417 18.6909C24.6374 18.8859 24.6852 19.1096 24.6852 19.3619C24.6852 19.5761 24.6509 19.7712 24.5821 19.9472C24.5135 20.123 24.41 20.2703 24.2725 20.3888C24.1349 20.5074 23.9932 20.6108 23.8478 20.6986C23.7027 20.7865 23.517 20.8573 23.2915 20.9108C23.066 20.9644 22.869 21.0064 22.7009 21.037C22.5326 21.0676 22.3223 21.0887 22.0699 21.1001C21.8174 21.1115 21.6262 21.1193 21.4962 21.1231C21.3662 21.1269 21.1884 21.1269 20.9627 21.1231C20.7369 21.1193 20.6052 21.1173 20.5669 21.1173V17.5953H20.5667V17.5954ZM25.391 25.4079C25.3181 25.5839 25.2246 25.7369 25.11 25.867C24.9951 25.9968 24.844 26.1117 24.6567 26.2109C24.4695 26.3105 24.2876 26.3907 24.1119 26.4519C23.9359 26.5133 23.7236 26.5666 23.4752 26.6126C23.2263 26.6585 23.0085 26.6908 22.8209 26.7101C22.6337 26.7293 22.41 26.7445 22.1499 26.7561C21.89 26.7673 21.6872 26.7731 21.5419 26.7731C21.3966 26.7731 21.213 26.771 20.9912 26.7673C20.7693 26.7637 20.6279 26.7618 20.5667 26.7618V22.884C20.6278 22.884 20.8094 22.8803 21.1116 22.8725C21.4138 22.8648 21.6603 22.8612 21.8516 22.8612C22.0427 22.8612 22.3067 22.8725 22.6433 22.8956C22.9797 22.9184 23.2627 22.9527 23.4923 22.9985C23.7217 23.0445 23.972 23.1152 24.2437 23.2109C24.5151 23.3064 24.7351 23.423 24.9034 23.5607C25.0717 23.6986 25.2131 23.8742 25.3278 24.0884C25.4428 24.3025 25.5001 24.5473 25.5001 24.8227C25.5001 25.0371 25.4638 25.2318 25.391 25.4079Z" fill="white"/>
</g>
<defs>
<linearGradient id="paint0_linear" x1="5.96585" y1="4.98696" x2="41.208" y2="37.2922" gradientUnits="userSpaceOnUse">
<stop stop-color="#229237"/>
<stop offset="1" stop-color="#47AB5A"/>
</linearGradient>
<clipPath id="clip0">
<rect width="19.0895" height="19.0895" fill="white" transform="translate(12.574 12.6965)"/>
</clipPath>
</defs>
</svg>
