<svg width="45" height="45" viewBox="0 0 45 45" fill="none" xmlns="http://www.w3.org/2000/svg">
<circle cx="22.0393" cy="22.8859" r="22.0263" fill="#208D2C"/>
<circle cx="22.0395" cy="22.8859" r="19.1419" transform="rotate(-180 22.0395 22.8859)" fill="#F0F0F0"/>
<g clip-path="url(#clip0)">
<path d="M18.1073 21.0541L21.672 17.4894L25.2384 21.0556L27.3125 18.9815L21.672 13.3411L16.0333 18.9798L18.1073 21.0539L18.1073 21.0541ZM12.4944 22.5187L14.5686 20.4442L16.6427 22.5183L14.5684 24.5925L12.4944 22.5187ZM18.1073 23.9835L21.672 27.548L25.2383 23.9818L27.3136 26.0549L27.3125 26.056L21.672 31.6963L16.0333 26.0576L16.0303 26.0547L18.1075 23.9833L18.1073 23.9835ZM26.7013 22.5196L28.7755 20.4454L30.8496 22.5194L28.7754 24.5936L26.7013 22.5196Z" fill="#39A34A"/>
<path d="M23.7754 22.518H23.7762L21.6717 20.4133L20.1161 21.9685L19.9374 22.1473L19.5689 22.5159L19.5659 22.5188L19.5689 22.5218L21.6717 24.625L23.7764 22.5202L23.7774 22.5191L23.7755 22.518" fill="#39A34A"/>
</g>
<defs>
<clipPath id="clip0">
<rect width="18.3553" height="18.3553" fill="white" transform="translate(12.4944 13.3411)"/>
</clipPath>
</defs>
</svg>
