<svg width="45" height="45" viewBox="0 0 45 45" fill="none" xmlns="http://www.w3.org/2000/svg">
<circle cx="22.882" cy="22.2412" r="22.0263" fill="#2C5298" fill-opacity="0.2"/>
<circle cx="22.882" cy="22.241" r="19.1419" transform="rotate(-180 22.882 22.241)" fill="url(#paint0_linear)" fill-opacity="0.9"/>
<g clip-path="url(#clip0)">
<path d="M31.668 18.6682C30.7387 17.8102 29.4533 16.5 28.4063 15.5707L28.3444 15.5274C28.2413 15.4446 28.1251 15.3797 28.0006 15.3353C25.4762 14.8645 13.7275 12.6684 13.4983 12.6963C13.4341 12.7053 13.3727 12.7286 13.3187 12.7645L13.2598 12.8109C13.1873 12.8845 13.1323 12.9734 13.0987 13.0711L13.0833 13.1114V13.3313V13.3654C14.4059 17.0482 19.6282 29.1128 20.6565 31.9439C20.7185 32.1359 20.8362 32.5014 21.0561 32.52H21.1056C21.2234 32.52 21.7251 31.8571 21.7251 31.8571C21.7251 31.8571 30.6954 20.9789 31.6029 19.8204C31.7204 19.6777 31.8241 19.5243 31.9127 19.362C31.9353 19.2351 31.9246 19.1045 31.8817 18.9829C31.8388 18.8613 31.7652 18.7529 31.668 18.6682ZM24.0265 19.935L27.855 16.7602L30.1006 18.8293L24.0265 19.935ZM22.5398 19.7275L15.9484 14.3256L26.6129 16.2924L22.5398 19.7275ZM23.1345 21.1431L29.8807 20.0558L22.1681 29.3482L23.1345 21.1431ZM15.0532 14.8645L21.9884 20.7497L20.9848 29.3544L15.0532 14.8645Z" fill="white"/>
</g>
<defs>
<linearGradient id="paint0_linear" x1="6.72928" y1="4.98696" x2="41.9714" y2="37.2922" gradientUnits="userSpaceOnUse">
<stop stop-color="#229237"/>
<stop offset="1" stop-color="#47AB5A"/>
</linearGradient>
<clipPath id="clip0">
<rect width="19.8237" height="19.8237" fill="white" transform="translate(12.603 12.6965)"/>
</clipPath>
</defs>
</svg>
