<svg width="52" height="53" viewBox="0 0 52 53" fill="none" xmlns="http://www.w3.org/2000/svg">
<path d="M26.1895 0.700503C22.8116 0.700503 19.4668 1.36584 16.346 2.65851C13.2252 3.95119 10.3895 5.8459 8.00098 8.23445C5.61243 10.623 3.71772 13.4586 2.42505 16.5794C1.13237 19.7002 0.46704 23.0451 0.46704 26.423C0.46704 29.8009 1.13237 33.1458 2.42505 36.2666C3.71772 39.3874 5.61243 42.223 8.00098 44.6116C10.3895 47.0001 13.2252 48.8948 16.346 50.1875C19.4668 51.4802 22.8116 52.1455 26.1895 52.1455L26.1895 26.423L26.1895 0.700503Z" fill="#252B35"/>
<ellipse cx="26.1894" cy="26.423" rx="18.3732" ry="18.3732" fill="#98E39E"/>
<g clip-path="url(#clip0)">
<path fill-rule="evenodd" clip-rule="evenodd" d="M19.5477 26.4228C19.6213 26.55 19.7189 26.7122 19.8398 26.8994C20.1504 27.3803 20.6103 28.0198 21.2075 28.6567C22.414 29.9437 24.1009 31.1386 26.1897 31.1386C28.2784 31.1386 29.9653 29.9437 31.1719 28.6567C31.769 28.0198 32.2289 27.3803 32.5395 26.8994C32.6604 26.7122 32.7581 26.55 32.8317 26.4228C32.7581 26.2955 32.6604 26.1334 32.5395 25.9462C32.2289 25.4653 31.769 24.8257 31.1719 24.1888C29.9653 22.9018 28.2784 21.707 26.1897 21.707C24.1009 21.707 22.414 22.9018 21.2075 24.1888C20.6103 24.8257 20.1504 25.4653 19.8398 25.9462C19.7189 26.1334 19.6213 26.2955 19.5477 26.4228ZM33.6002 26.4228C34.2027 26.1215 34.2026 26.1213 34.2025 26.121L34.2014 26.1188L34.1991 26.1142L34.1914 26.0993C34.185 26.0868 34.1759 26.0693 34.1642 26.0471C34.1408 26.0029 34.1068 25.9399 34.0623 25.8609C33.9735 25.703 33.8428 25.4806 33.6714 25.2152C33.3293 24.6855 32.8208 23.9777 32.1548 23.2673C30.8351 21.8595 28.8167 20.3596 26.1897 20.3596C23.5626 20.3596 21.5443 21.8595 20.2245 23.2673C19.5585 23.9777 19.05 24.6855 18.708 25.2152C18.5365 25.4806 18.4058 25.703 18.317 25.8609C18.2726 25.9399 18.2385 26.0029 18.2151 26.0471C18.2034 26.0693 18.1943 26.0868 18.1879 26.0993L18.1802 26.1142L18.1779 26.1188L18.1771 26.1204C18.177 26.1207 18.1766 26.1215 18.7792 26.4228L18.1766 26.1215C18.0818 26.3111 18.0818 26.5344 18.1766 26.724L18.7792 26.4228C18.1766 26.724 18.1765 26.7238 18.1766 26.724L18.1779 26.7267L18.1802 26.7313L18.1879 26.7463C18.1943 26.7588 18.2034 26.7762 18.2151 26.7984C18.2385 26.8427 18.2726 26.9056 18.317 26.9846C18.4058 27.1425 18.5365 27.3649 18.708 27.6304C19.05 28.16 19.5585 28.8678 20.2245 29.5783C21.5443 30.986 23.5626 32.4859 26.1897 32.4859C28.8167 32.4859 30.8351 30.986 32.1548 29.5783C32.8208 28.8678 33.3293 28.16 33.6714 27.6304C33.8428 27.3649 33.9735 27.1425 34.0623 26.9846C34.1068 26.9056 34.1408 26.8427 34.1642 26.7984C34.1759 26.7762 34.185 26.7588 34.1914 26.7463L34.1991 26.7313L34.2014 26.7267L34.2022 26.7251C34.2023 26.7249 34.2027 26.724 33.6002 26.4228ZM33.6002 26.4228L34.2027 26.724C34.2976 26.5344 34.2973 26.3107 34.2025 26.121L33.6002 26.4228Z" fill="white"/>
<path fill-rule="evenodd" clip-rule="evenodd" d="M26.1899 25.0756C25.4457 25.0756 24.8425 25.6789 24.8425 26.423C24.8425 27.1671 25.4457 27.7704 26.1899 27.7704C26.934 27.7704 27.5372 27.1671 27.5372 26.423C27.5372 25.6789 26.934 25.0756 26.1899 25.0756ZM23.4951 26.423C23.4951 24.9347 24.7016 23.7283 26.1899 23.7283C27.6781 23.7283 28.8846 24.9347 28.8846 26.423C28.8846 27.9113 27.6781 29.1177 26.1899 29.1177C24.7016 29.1177 23.4951 27.9113 23.4951 26.423Z" fill="white"/>
</g>
<defs>
<clipPath id="clip0">
<rect width="16.1684" height="16.1684" fill="white" transform="translate(18.1055 18.3386)"/>
</clipPath>
</defs>
</svg>
