<svg width="200" height="36" viewBox="0 0 200 36" fill="none" xmlns="http://www.w3.org/2000/svg">
<path d="M56.7647 27.3225C60.6058 27.3225 63.9485 25.3287 65.6198 22.3086L64.2417 21.5169C62.8929 24.0972 60.0194 25.8271 56.7647 25.8271C51.3696 25.8271 47.6458 21.7808 47.6458 16.7375C47.6458 11.6942 51.3696 7.64786 56.7647 7.64786C59.9901 7.64786 62.8343 9.3485 64.1831 11.8701L65.5612 11.0785C63.8605 8.08768 60.5472 6.15246 56.7647 6.15246C50.5193 6.15246 46.0917 10.8732 46.0917 16.7375C46.0917 22.6018 50.5193 27.3225 56.7647 27.3225ZM70.4572 15.2128V12.3393H68.9911V27H70.4572V18.8486C70.4572 15.0955 72.8322 13.5415 75.3538 13.5415V12.134C73.36 12.134 71.4541 12.8964 70.4572 15.2128ZM89.3438 12.3393L84.2419 25.3873L78.319 12.3393H76.7356L83.4795 27.2639L83.157 28.0556C82.248 30.196 80.7526 31.6621 78.7881 31.4862V32.8643C81.3097 33.0695 83.4795 31.1636 84.5937 28.3488L90.9272 12.3393H89.3438ZM101.329 12.0167C98.4852 12.0167 96.2275 13.4828 95.0253 15.7406V12.3393H93.5592V32.8643H95.0253V23.5987C96.2275 25.8565 98.4852 27.3225 101.329 27.3225C105.522 27.3225 108.924 24.0092 108.924 19.6696C108.924 15.3301 105.522 12.0167 101.329 12.0167ZM101.241 25.9151C97.7522 25.9151 95.0253 23.1589 95.0253 19.6696C95.0253 16.1804 97.7522 13.4242 101.241 13.4242C104.731 13.4242 107.458 16.1804 107.458 19.6696C107.458 23.1589 104.731 25.9151 101.241 25.9151ZM119.678 13.776V12.3393H115.309V8.23428L113.813 8.67411V12.3393H110.588V13.776H113.813V23.3055C113.813 26.6481 115.837 27.5864 119.678 27V25.6805C116.687 25.9444 115.309 25.8858 115.309 23.3055V13.776H119.678ZM129.023 27.3225C133.274 27.3225 136.705 24.0092 136.705 19.6696C136.705 15.3301 133.274 12.0167 129.023 12.0167C124.742 12.0167 121.311 15.3301 121.311 19.6696C121.311 24.0092 124.742 27.3225 129.023 27.3225ZM129.023 25.9151C125.533 25.9151 122.806 23.1589 122.806 19.6696C122.806 16.1804 125.533 13.4242 129.023 13.4242C132.512 13.4242 135.209 16.1804 135.209 19.6696C135.209 23.1589 132.512 25.9151 129.023 25.9151ZM151.903 7.94107V6.475H140.526V27H142.08V17.6171H151.551V16.1511H142.08V7.94107H151.903ZM155.409 27H156.875V5.59536H155.409V27ZM168.108 27.3225C172.36 27.3225 175.79 24.0092 175.79 19.6696C175.79 15.3301 172.36 12.0167 168.108 12.0167C163.827 12.0167 160.397 15.3301 160.397 19.6696C160.397 24.0092 163.827 27.3225 168.108 27.3225ZM168.108 25.9151C164.619 25.9151 161.892 23.1589 161.892 19.6696C161.892 16.1804 164.619 13.4242 168.108 13.4242C171.598 13.4242 174.295 16.1804 174.295 19.6696C174.295 23.1589 171.598 25.9151 168.108 25.9151ZM196.544 12.3393L192.644 25.0941L188.539 12.3393H187.015L182.91 25.0941L179.01 12.3393H177.456L182.089 27H183.701L187.777 14.5091L191.853 27H193.465L198.098 12.3393H196.544Z" fill="#E8E8E8"/>
<path d="M24.2354 12.4545C21.5012 12.4545 18.8586 11.2232 16.3513 8.78195C14.3239 6.80658 12.3047 5.9387 10.3593 6.20359C6.30992 6.75334 3.29409 11.8422 3.26401 11.8927L0.000732422 10.1224C0.157949 9.84816 3.90655 3.40693 9.84388 2.60028C13.0156 2.17033 16.0929 3.3843 18.9925 6.20891C20.9995 8.16298 23.0009 9.02421 24.9394 8.77263C29.0408 8.24018 32.0566 3.15402 32.0867 3.10344L35.3376 4.89378C35.1804 5.16666 31.3963 11.5853 25.4562 12.3759C25.0516 12.4291 24.6437 12.4553 24.2354 12.4545Z" fill="#E9E9E9"/>
<path d="M24.2347 22.1836C21.5004 22.1836 18.8578 20.9523 16.3506 18.5097C14.3218 16.5357 12.3039 15.6705 10.3572 15.9327C6.30919 16.4824 3.29335 21.5713 3.26328 21.6218L0 19.8515C0.157217 19.5773 3.90582 13.136 9.84315 12.3294C13.0148 11.9008 16.0922 13.1134 18.9932 15.938C21.0028 17.8947 23.007 18.756 24.951 18.4977C29.0099 17.9573 32.06 12.8831 32.0846 12.8325L35.3383 14.6202C35.1811 14.8864 31.3969 21.3117 25.4568 22.1024C25.0518 22.1565 24.6435 22.1836 24.2347 22.1836Z" fill="#E9E9E9"/>
<path d="M24.2347 31.913C21.5005 31.913 18.8578 30.6817 16.3506 28.2391C14.3218 26.2637 12.3039 25.4012 10.3572 25.6621C6.30919 26.2105 3.29335 31.3007 3.26328 31.3512L0 29.5809C0.157217 29.3067 3.90582 22.8641 9.84315 22.0588C13.0148 21.6288 16.0922 22.8428 18.9932 25.6674C21.0042 27.6241 23.0084 28.484 24.951 28.2271C29.01 27.6867 32.06 22.6138 32.0846 22.5619L35.3369 24.347C35.1797 24.6212 31.3956 31.0384 25.4555 31.8291C25.051 31.8841 24.6431 31.9121 24.2347 31.913Z" fill="#E9E9E9"/>
</svg>
